<?xml version="1.0" standalone="no"?>
<!DOCTYPE svg PUBLIC "-//W3C//DTD SVG 20010904//EN"
 "http://www.w3.org/TR/2001/REC-SVG-20010904/DTD/svg10.dtd">
<svg version="1.0" xmlns="http://www.w3.org/2000/svg"
 width="2001.000000pt" height="2001.000000pt" viewBox="0 0 2001.000000 2001.000000"
 preserveAspectRatio="xMidYMid meet">
<metadata>
Created by potrace 1.11, written by Peter Selinger 2001-2013
</metadata>
<g transform="translate(0.000000,2001.000000) scale(0.100000,-0.100000)"
fill="#000000" stroke="none">
<path d="M9687 20004 c-1 -1 -114 -5 -252 -8 -137 -4 -284 -9 -325 -11 -41 -2
-136 -6 -210 -10 -74 -3 -162 -8 -195 -10 -86 -4 -338 -18 -352 -18 -7 0 -13
-1 -13 -1 0 -1 -16 -77 -35 -171 -31 -151 -111 -547 -121 -600 -2 -11 -10 -51
-18 -90 -9 -38 -18 -83 -20 -99 -3 -16 -10 -52 -16 -80 -16 -81 -68 -347 -75
-386 -3 -19 -10 -53 -15 -75 -5 -22 -11 -56 -14 -75 -3 -19 -18 -102 -35 -185
-16 -82 -32 -171 -36 -197 -4 -27 -12 -48 -19 -49 -6 0 -20 -2 -31 -4 -11 -2
-51 -7 -90 -11 -38 -3 -73 -8 -77 -10 -5 -3 -36 111 -53 196 -2 8 -15 65 -29
125 -15 61 -28 119 -30 130 -6 31 -22 96 -61 260 -19 83 -49 209 -66 280 -16
72 -34 144 -39 160 -4 17 -16 65 -25 108 -11 50 -22 77 -31 78 -8 1 -17 2 -21
3 -7 2 -46 8 -129 21 -16 3 -45 8 -64 11 -19 3 -46 8 -60 10 -14 3 -36 7 -50
9 -14 3 -43 7 -65 11 -22 3 -51 7 -65 10 -89 15 -333 53 -382 58 -21 3 -46 7
-55 10 -10 2 -43 7 -73 11 -30 3 -66 7 -80 10 -37 6 -190 26 -226 30 -17 1
-53 6 -80 9 -48 7 -97 12 -184 21 -25 3 -63 7 -85 10 -22 2 -71 7 -110 10 -38
3 -81 8 -95 10 -14 2 -61 7 -105 11 -44 4 -91 8 -105 9 -14 2 -56 6 -95 10
-38 3 -81 8 -95 10 -14 2 -61 7 -105 10 -44 4 -91 8 -105 10 -14 2 -54 6 -90
10 -36 3 -91 8 -123 11 l-58 6 6 -44 c4 -23 8 -56 10 -73 6 -54 16 -139 20
-175 3 -19 7 -60 10 -90 3 -30 8 -66 10 -80 2 -14 6 -47 9 -75 3 -27 15 -124
26 -215 11 -91 22 -187 26 -215 3 -27 7 -61 9 -75 2 -14 7 -50 10 -80 3 -30 8
-71 10 -90 5 -35 22 -181 31 -255 2 -22 6 -56 9 -75 3 -19 12 -96 20 -170 9
-74 18 -146 20 -160 2 -14 7 -52 10 -85 3 -33 8 -71 10 -85 2 -14 6 -52 10
-85 3 -33 8 -71 10 -85 2 -14 6 -52 10 -85 3 -33 8 -71 10 -85 4 -25 11 -82
21 -167 3 -27 9 -82 14 -123 5 -41 12 -100 15 -130 4 -30 8 -66 10 -80 4 -26
7 -50 25 -208 6 -52 12 -108 15 -125 4 -33 11 -89 20 -174 3 -27 8 -61 10 -78
2 -16 7 -52 10 -80 3 -27 10 -84 15 -125 5 -41 12 -102 16 -135 3 -33 8 -67 9
-75 6 -31 29 -246 29 -274 l1 -30 -185 -37 c-102 -21 -200 -40 -217 -43 -18
-3 -54 -11 -80 -17 -27 -6 -59 -13 -73 -15 -14 -3 -86 -19 -160 -35 -74 -17
-146 -32 -160 -35 -278 -56 -1045 -254 -1567 -405 l-312 -90 -83 26 c-156 49
-370 69 -547 51 -41 -4 -78 -9 -81 -11 -3 -2 -25 -6 -49 -10 -81 -12 -254 -75
-359 -131 -363 -192 -618 -530 -704 -934 -37 -175 -31 -482 12 -594 5 -15 7
-26 5 -26 -11 0 77 -225 115 -297 82 -151 236 -338 349 -423 18 -14 45 -34 59
-46 45 -35 175 -110 232 -135 30 -12 60 -26 65 -30 25 -18 277 -80 333 -82 13
0 11 -53 -4 -132 -2 -11 -7 -40 -10 -65 -3 -25 -7 -52 -9 -60 -1 -8 -6 -40
-10 -70 -4 -30 -9 -63 -11 -74 -2 -10 -6 -44 -10 -75 -3 -31 -8 -65 -10 -76
-2 -11 -7 -49 -10 -85 -3 -36 -7 -72 -9 -80 -2 -8 -6 -42 -10 -75 -5 -57 -9
-89 -19 -180 -2 -22 -7 -74 -11 -115 -3 -41 -8 -86 -10 -100 -2 -14 -7 -65
-10 -115 -3 -49 -8 -106 -10 -125 -5 -54 -17 -207 -21 -285 -3 -38 -6 -101 -9
-140 -2 -38 -7 -124 -10 -190 -3 -66 -8 -154 -10 -195 -25 -422 -25 -1739 0
-2235 2 -38 6 -142 10 -230 3 -88 8 -191 10 -230 2 -38 6 -115 9 -170 3 -55 8
-134 11 -175 3 -41 7 -111 10 -155 2 -44 7 -114 10 -155 4 -41 8 -102 10 -135
2 -33 6 -87 9 -120 3 -33 8 -91 11 -130 3 -38 7 -95 10 -125 2 -30 7 -86 10
-125 3 -38 8 -90 10 -115 3 -25 7 -74 10 -110 3 -36 7 -81 10 -100 2 -19 7
-66 10 -105 3 -38 8 -86 10 -105 2 -19 7 -64 10 -100 4 -36 8 -76 10 -90 2
-14 7 -54 10 -90 6 -64 12 -119 20 -190 3 -19 12 -98 20 -175 9 -77 17 -153
20 -170 2 -16 7 -52 10 -80 3 -27 8 -63 10 -80 5 -37 14 -108 19 -155 2 -19
12 -91 21 -160 9 -69 18 -138 20 -153 11 -80 16 -114 20 -137 3 -14 7 -47 10
-75 3 -27 7 -61 10 -75 5 -30 17 -109 20 -130 10 -70 19 -136 20 -140 1 -3 5
-30 9 -60 4 -30 11 -77 16 -105 5 -27 12 -70 15 -95 3 -25 15 -97 25 -160 10
-63 22 -133 25 -155 3 -23 7 -52 10 -65 3 -13 7 -42 11 -65 3 -22 13 -44 22
-50 9 -5 62 -34 117 -64 55 -29 126 -69 158 -87 32 -19 60 -34 63 -34 2 0 43
-22 91 -48 49 -27 122 -67 163 -89 106 -57 426 -230 485 -263 28 -15 91 -49
140 -75 50 -27 128 -69 175 -95 47 -26 130 -71 185 -100 55 -29 105 -56 110
-60 6 -4 60 -33 120 -65 61 -32 127 -69 147 -82 21 -13 40 -23 42 -23 3 0 70
-35 148 -78 79 -44 181 -99 228 -124 109 -58 259 -140 558 -302 154 -84 240
-130 332 -179 41 -22 85 -46 97 -53 38 -24 38 -21 19 71 -3 11 -17 79 -31 150
-15 72 -28 137 -30 145 -18 83 -35 161 -39 183 -2 15 -7 35 -10 45 -3 9 -7 35
-11 57 -3 22 -8 47 -10 55 -5 15 -82 382 -90 430 -3 14 -13 64 -23 113 -11 48
-18 87 -17 87 1 0 63 -38 136 -84 74 -45 148 -91 164 -100 17 -9 64 -37 105
-62 93 -57 437 -254 630 -362 243 -134 705 -370 970 -495 156 -73 361 -167
365 -167 2 0 32 -13 67 -29 115 -53 162 -73 273 -118 60 -25 124 -51 140 -58
115 -52 577 -226 815 -307 324 -111 757 -238 896 -262 16 -3 62 -14 103 -24
41 -11 86 -18 100 -16 34 3 263 56 366 84 44 12 90 23 102 26 66 13 572 176
818 263 142 51 537 203 610 235 17 8 66 28 110 46 44 18 108 46 143 62 35 15
65 28 67 28 8 0 301 132 505 228 197 93 544 266 718 358 45 24 121 65 170 91
273 145 845 477 974 565 15 10 30 18 33 18 3 0 34 19 67 41 l61 42 -6 -39 c-3
-21 -8 -50 -11 -64 -4 -14 -9 -38 -11 -55 -3 -16 -8 -37 -10 -45 -2 -8 -6 -26
-9 -40 -2 -14 -16 -79 -30 -145 -14 -66 -28 -138 -32 -160 -3 -22 -8 -43 -10
-46 -2 -4 -6 -24 -10 -45 -3 -22 -9 -55 -14 -74 -5 -19 -12 -48 -14 -65 -7
-35 -11 -54 -25 -115 -5 -25 -12 -58 -15 -75 -3 -16 -8 -39 -10 -50 -31 -141
-66 -328 -63 -331 2 -3 29 8 58 25 30 16 97 52 149 81 52 29 138 75 190 102
52 28 100 54 105 58 6 4 51 29 100 55 120 64 199 106 325 175 58 32 137 74
175 95 39 21 93 50 120 65 28 15 82 44 120 65 68 36 129 69 230 125 28 15 79
43 115 62 54 30 392 212 615 333 213 115 429 232 480 260 33 18 164 89 290
158 127 68 254 137 283 153 28 15 53 35 53 43 3 33 15 113 24 161 3 13 7 42
10 65 3 22 8 47 10 55 2 8 7 35 10 60 2 25 7 56 10 70 3 14 8 44 11 66 2 23 6
50 8 60 8 40 16 94 51 339 14 99 27 191 30 205 2 14 7 45 10 70 3 25 8 56 10
70 8 55 18 136 20 160 1 14 5 43 8 65 6 38 32 234 43 320 3 22 7 58 10 80 3
22 8 56 9 75 8 81 15 146 19 165 2 11 7 54 11 95 4 41 8 82 10 90 2 8 6 49 10
90 4 41 8 82 10 90 1 8 6 47 9 85 4 39 9 86 11 105 2 19 7 67 10 105 3 39 7
81 10 95 2 14 6 61 10 105 4 44 8 94 10 110 2 17 6 64 10 105 3 41 8 91 10
110 2 19 7 73 10 120 3 47 8 105 10 130 5 44 11 125 20 260 3 36 7 97 10 135
10 139 16 240 30 475 3 52 8 133 10 180 2 47 7 144 10 215 34 696 39 1840 10
2425 -2 47 -7 144 -10 215 -3 72 -8 159 -10 195 -2 36 -7 106 -10 155 -7 112
-14 205 -20 270 -2 28 -7 86 -10 130 -3 44 -8 94 -10 110 -2 17 -7 64 -11 105
-3 41 -7 89 -9 105 -3 36 -13 122 -25 225 -5 41 -12 100 -15 130 -4 30 -8 66
-10 80 -2 14 -11 81 -20 150 -9 69 -18 132 -20 140 -2 8 -7 42 -11 75 -3 33
-7 62 -9 65 -2 3 -6 33 -10 68 l-7 62 32 0 c80 0 278 60 410 124 68 33 189
106 216 131 7 5 31 26 55 45 181 146 327 351 412 580 58 157 81 282 81 455 1
83 -3 177 -7 209 -12 85 -52 232 -87 321 -28 69 -45 105 -91 185 -33 57 -106
158 -143 198 -23 24 -44 49 -48 56 -10 17 -155 139 -213 179 -135 92 -332 180
-445 201 -14 2 -45 9 -70 14 -131 30 -371 33 -498 6 -68 -14 -122 -28 -179
-46 -35 -11 -71 -17 -80 -15 -10 3 -49 15 -88 26 -293 87 -927 262 -1037 287
-10 2 -26 6 -35 9 -51 13 -141 36 -158 40 -11 3 -29 7 -40 10 -11 2 -49 12
-85 20 -36 9 -72 18 -80 20 -8 2 -55 13 -105 25 -49 12 -99 23 -110 26 -11 2
-70 15 -130 29 -61 14 -173 38 -250 54 -77 17 -194 41 -260 55 -139 29 -149
31 -273 54 l-94 17 7 55 c8 70 11 91 19 165 4 33 8 71 11 85 2 14 7 52 10 85
3 33 8 71 10 85 9 68 23 185 29 250 3 25 7 59 10 75 2 17 7 57 11 90 3 33 8
71 10 85 2 14 6 52 10 85 3 33 8 67 10 75 2 8 6 45 10 82 3 37 8 77 10 90 2
13 9 68 15 123 6 55 12 112 15 125 2 14 6 48 9 75 3 28 8 64 10 80 2 17 7 57
10 90 4 33 8 71 11 85 2 14 7 52 10 85 3 33 10 94 15 135 5 41 12 98 15 125
10 85 14 117 24 200 6 44 13 103 16 130 3 28 8 66 10 85 3 19 7 60 10 90 3 30
7 64 9 75 3 11 8 50 11 87 3 37 7 75 9 85 6 29 22 161 31 258 4 33 8 67 10 75
2 8 7 44 10 80 4 36 9 79 11 95 8 57 13 100 19 165 3 36 8 72 10 80 2 8 6 42
10 75 3 33 7 71 10 85 2 14 7 52 10 85 3 33 8 71 10 85 2 14 6 47 10 74 l6 48
-68 -6 c-37 -4 -86 -9 -108 -11 -22 -2 -65 -7 -95 -9 -91 -9 -162 -16 -210
-21 -46 -5 -108 -11 -202 -20 -90 -8 -172 -16 -208 -20 -38 -4 -100 -11 -200
-21 -36 -3 -78 -8 -95 -10 -16 -2 -52 -6 -80 -9 -115 -13 -198 -24 -285 -36
-41 -6 -90 -12 -110 -14 -19 -2 -52 -6 -72 -9 -66 -10 -112 -17 -153 -22 -22
-3 -62 -9 -90 -14 -27 -5 -67 -12 -87 -15 -21 -3 -53 -7 -70 -10 -18 -3 -46
-7 -63 -10 -16 -2 -39 -6 -50 -8 -11 -3 -40 -8 -65 -11 -25 -3 -58 -9 -75 -11
-45 -8 -135 -24 -175 -30 -43 -7 -90 -16 -110 -20 -8 -2 -22 -4 -31 -4 -18 -1
-17 2 -99 -351 -23 -96 -63 -267 -90 -380 -27 -113 -51 -216 -54 -230 -3 -14
-19 -83 -36 -155 -17 -71 -33 -141 -36 -155 -3 -14 -7 -32 -9 -40 -2 -8 -4
-19 -4 -23 -1 -5 -4 -6 -8 -4 -5 3 -39 8 -78 12 -97 9 -127 13 -130 17 -1 2
-12 57 -24 123 -12 66 -26 140 -31 165 -6 25 -12 59 -15 77 -3 18 -21 114 -41
215 -20 101 -38 194 -40 208 -3 14 -7 39 -11 55 -3 17 -7 37 -9 45 -1 8 -14
76 -29 150 -15 74 -29 144 -31 155 -2 11 -8 43 -14 70 -15 72 -16 78 -65 320
-46 225 -52 251 -60 295 -24 124 -25 129 -43 128 -19 -1 -267 11 -357 18 -33
2 -112 6 -175 9 -63 3 -160 7 -215 10 -288 13 -1198 27 -1208 19z"/>
</g>
</svg>
